<svg width="61" height="63" viewBox="0 0 61 63" fill="none" xmlns="http://www.w3.org/2000/svg">
<path d="M47.6562 17.7188C49.7618 17.7188 51.4688 15.9559 51.4688 13.7812C51.4688 11.6066 49.7618 9.84375 47.6562 9.84375C45.5507 9.84375 43.8438 11.6066 43.8438 13.7812C43.8438 15.9559 45.5507 17.7188 47.6562 17.7188Z" stroke="#099DBA" stroke-width="2" stroke-linecap="round" stroke-linejoin="round"/>
<path d="M47.6562 9.84375V6.89062" stroke="#099DBA" stroke-width="2" stroke-linecap="round" stroke-linejoin="round"/>
<path d="M44.3542 11.8125L41.8779 10.3359" stroke="#099DBA" stroke-width="2" stroke-linecap="round" stroke-linejoin="round"/>
<path d="M44.3542 15.75L41.8779 17.2266" stroke="#099DBA" stroke-width="2" stroke-linecap="round" stroke-linejoin="round"/>
<path d="M47.6562 17.7188V20.6719" stroke="#099DBA" stroke-width="2" stroke-linecap="round" stroke-linejoin="round"/>
<path d="M50.958 15.75L53.4343 17.2266" stroke="#099DBA" stroke-width="2" stroke-linecap="round" stroke-linejoin="round"/>
<path d="M50.958 11.8125L53.4343 10.3359" stroke="#099DBA" stroke-width="2" stroke-linecap="round" stroke-linejoin="round"/>
<path d="M7.38379 53.1539C9.72743 48.9644 13.0973 45.4855 17.1549 43.0668C21.2126 40.6482 25.815 39.375 30.5 39.375C35.1849 39.375 39.7873 40.6484 43.8449 43.0671C47.9025 45.4859 51.2723 48.9648 53.6159 53.1544" stroke="#099DBA" stroke-width="2" stroke-linecap="round" stroke-linejoin="round"/>
<path d="M44.4698 29.9519C43.3289 32.6334 41.4864 34.933 39.1493 36.5922C36.8123 38.2514 34.0734 39.2044 31.2407 39.344C28.4079 39.4836 25.5937 38.8043 23.1143 37.3824C20.6349 35.9606 18.5887 33.8526 17.2058 31.2955C15.8228 28.7384 15.158 25.8336 15.2861 22.9076C15.4141 19.9817 16.3299 17.1506 17.9305 14.7328C19.5312 12.3149 21.7531 10.4062 24.3466 9.22115C26.9401 8.03611 29.8022 7.62176 32.6112 8.0247" stroke="#099DBA" stroke-width="2" stroke-linecap="round" stroke-linejoin="round"/>
</svg>
